<svg width="24" height="24" viewBox="0 0 24 24" fill="none" xmlns="http://www.w3.org/2000/svg">
<path d="M18.81 2.14L3.49999 7.66C3.08751 7.81604 2.72805 8.08642 2.46374 8.43945C2.19942 8.79247 2.04121 9.21352 2.00762 9.65324C1.97404 10.093 2.06648 10.5332 2.27412 10.9222C2.48176 11.3113 2.79599 11.6331 3.17999 11.85L7.43999 14.19C8.08022 14.5537 8.82525 14.6885 9.55234 14.5722C10.2794 14.4559 10.9452 14.0953 11.44 13.55L21.44 2.81C21.1265 2.4376 20.7043 2.17272 20.2326 2.05255C19.7609 1.93238 19.2634 1.96296 18.81 2.14Z" fill="black"/>
<path opacity="0.3" d="M16.41 20.52L21.85 5.27C22.0022 4.85521 22.0379 4.40667 21.9533 3.97302C21.8687 3.53937 21.6669 3.13716 21.37 2.81L11.24 13.71C10.7753 14.2158 10.4741 14.8501 10.376 15.53C10.2778 16.2098 10.3873 16.9034 10.69 17.52L12.28 20.76C12.4733 21.1582 12.7802 21.4901 13.1619 21.714C13.5437 21.9379 13.9832 22.0437 14.4251 22.018C14.8669 21.9924 15.2912 21.8364 15.6445 21.5698C15.9978 21.3031 16.2641 20.9379 16.41 20.52Z" fill="black"/>
</svg>
