<svg width="24" height="24" viewBox="0 0 24 24" fill="none" xmlns="http://www.w3.org/2000/svg">
<path opacity="0.3" d="M16.05 2H7.95C4.66391 2 2 4.66391 2 7.95V16.05C2 19.3361 4.66391 22 7.95 22H16.05C19.3361 22 22 19.3361 22 16.05V7.95C22 4.66391 19.3361 2 16.05 2Z" fill="black"/>
<path d="M16.7 8.28H13.34C13.1411 8.28 12.9503 8.20098 12.8097 8.06033C12.669 7.91968 12.59 7.72891 12.59 7.53C12.59 7.33109 12.669 7.14032 12.8097 6.99967C12.9503 6.85902 13.1411 6.78 13.34 6.78H16.7C16.8989 6.78 17.0897 6.85902 17.2304 6.99967C17.371 7.14032 17.45 7.33109 17.45 7.53C17.45 7.72891 17.371 7.91968 17.2304 8.06033C17.0897 8.20098 16.8989 8.28 16.7 8.28Z" fill="black"/>
<path d="M16.7 12.75H8.23999C8.04108 12.75 7.85031 12.671 7.70966 12.5303C7.56901 12.3897 7.48999 12.1989 7.48999 12C7.48999 11.8011 7.56901 11.6103 7.70966 11.4697C7.85031 11.329 8.04108 11.25 8.23999 11.25H16.7C16.8989 11.25 17.0897 11.329 17.2303 11.4697C17.371 11.6103 17.45 11.8011 17.45 12C17.45 12.1989 17.371 12.3897 17.2303 12.5303C17.0897 12.671 16.8989 12.75 16.7 12.75Z" fill="black"/>
<path d="M16.43 17.22H10.7C10.5011 17.22 10.3103 17.141 10.1697 17.0003C10.029 16.8597 9.95001 16.6689 9.95001 16.47C9.95001 16.2711 10.029 16.0803 10.1697 15.9397C10.3103 15.799 10.5011 15.72 10.7 15.72H16.43C16.6289 15.72 16.8197 15.799 16.9603 15.9397C17.101 16.0803 17.18 16.2711 17.18 16.47C17.18 16.6689 17.101 16.8597 16.9603 17.0003C16.8197 17.141 16.6289 17.22 16.43 17.22Z" fill="black"/>
</svg>
