<svg width="24" height="24" viewBox="0 0 24 24" fill="none" xmlns="http://www.w3.org/2000/svg">
<path d="M18.39 13L9.71 4.29C9.56938 4.15124 9.39081 4.05725 9.19682 4.01987C9.00283 3.9825 8.80211 4.00342 8.62 4.08C8.43738 4.15502 8.28106 4.28242 8.17072 4.44614C8.06039 4.60986 8.00099 4.80257 8 5V17.28C7.99963 17.4674 8.05193 17.6512 8.15094 17.8103C8.24996 17.9694 8.3917 18.0975 8.56 18.18C8.69714 18.2464 8.84763 18.2806 9 18.28C9.22438 18.2815 9.44275 18.2076 9.62 18.07C10.3703 17.493 11.1663 16.978 12 16.53L13.5 20.08C13.6118 20.3536 13.8031 20.5875 14.049 20.7515C14.295 20.9154 14.5844 21.002 14.88 21C15.0794 20.9987 15.2765 20.9579 15.46 20.88C15.6468 20.8049 15.8164 20.6927 15.9586 20.5502C16.1008 20.4077 16.2127 20.2379 16.2875 20.051C16.3622 19.8641 16.3983 19.6639 16.3936 19.4627C16.3889 19.2614 16.3434 19.0632 16.26 18.88L14.76 15.3C15.7633 14.9825 16.7947 14.7615 17.84 14.64C18.0263 14.6189 18.2029 14.5458 18.3497 14.4291C18.4965 14.3124 18.6074 14.1568 18.67 13.98C18.7155 13.8066 18.7135 13.6241 18.6642 13.4517C18.615 13.2792 18.5202 13.1232 18.39 13Z" fill="black"/>
<path opacity="0.3" d="M14.14 5.34C14.014 5.34344 13.8895 5.31231 13.78 5.25C13.6079 5.15683 13.4798 4.99932 13.4236 4.81192C13.3674 4.62452 13.3876 4.42248 13.48 4.25L14.48 2.49C14.5222 2.39525 14.5837 2.3103 14.6604 2.24052C14.7372 2.17073 14.8276 2.11763 14.9259 2.08456C15.0242 2.0515 15.1284 2.03919 15.2317 2.04842C15.335 2.05765 15.4353 2.08821 15.5262 2.13818C15.6171 2.18815 15.6967 2.25643 15.7599 2.33871C15.823 2.421 15.8685 2.51549 15.8932 2.61622C15.918 2.71695 15.9217 2.82173 15.9039 2.92394C15.8861 3.02614 15.8473 3.12355 15.79 3.21L14.8 5C14.7289 5.10907 14.6307 5.19778 14.515 5.25739C14.3993 5.31701 14.27 5.34548 14.14 5.34Z" fill="black"/>
<path opacity="0.3" d="M17.45 8.57C17.2818 8.56843 17.119 8.51037 16.9878 8.40515C16.8566 8.29992 16.7645 8.15364 16.7264 7.9898C16.6884 7.82597 16.7065 7.65409 16.7778 7.50178C16.8492 7.34947 16.9697 7.22558 17.12 7.15L18.9 6.25C19.0777 6.15983 19.2839 6.14393 19.4733 6.20582C19.6627 6.26771 19.8198 6.4023 19.91 6.58C20.0002 6.75769 20.0161 6.96393 19.9542 7.15334C19.8923 7.34276 19.7577 7.49983 19.58 7.59L17.79 8.49C17.6856 8.54581 17.5684 8.57339 17.45 8.57Z" fill="black"/>
<path opacity="0.3" d="M4.78 10.77H2.78C2.58109 10.77 2.39032 10.691 2.24967 10.5503C2.10902 10.4097 2.03 10.2189 2.03 10.02C2.03 9.82109 2.10902 9.63032 2.24967 9.48967C2.39032 9.34902 2.58109 9.27 2.78 9.27H4.78C4.97891 9.27 5.16968 9.34902 5.31033 9.48967C5.45098 9.63032 5.53 9.82109 5.53 10.02C5.53 10.2189 5.45098 10.4097 5.31033 10.5503C5.16968 10.691 4.97891 10.77 4.78 10.77Z" fill="black"/>
<path opacity="0.3" d="M3.27 16.16C3.1018 16.1584 2.93901 16.1004 2.80779 15.9951C2.67656 15.8899 2.58452 15.7436 2.54645 15.5798C2.50837 15.416 2.52648 15.2441 2.59785 15.0918C2.66923 14.9395 2.78973 14.8156 2.94 14.74L4.73 13.85C4.81841 13.8061 4.91473 13.7803 5.01327 13.7741C5.11181 13.768 5.21058 13.7816 5.30377 13.8142C5.39695 13.8468 5.48267 13.8978 5.55587 13.964C5.62907 14.0303 5.68828 14.1105 5.73 14.2C5.77568 14.2875 5.80313 14.3834 5.8107 14.4819C5.81826 14.5803 5.80577 14.6793 5.77398 14.7728C5.7422 14.8662 5.69178 14.9523 5.62578 15.0257C5.55978 15.0992 5.47957 15.1585 5.39 15.2L3.6 16.09C3.49642 16.1371 3.38379 16.161 3.27 16.16Z" fill="black"/>
</svg>
