<svg width="24" height="24" viewBox="0 0 24 24" fill="none" xmlns="http://www.w3.org/2000/svg">
<path opacity="0.3" d="M16.19 2H7.81C4.60123 2 2 4.60123 2 7.81V16.19C2 19.3988 4.60123 22 7.81 22H16.19C19.3988 22 22 19.3988 22 16.19V7.81C22 4.60123 19.3988 2 16.19 2Z" fill="black"/>
<path d="M13.41 12L16.24 9.17C16.3447 9.08035 16.4297 8.97003 16.4897 8.84597C16.5497 8.7219 16.5835 8.58677 16.5888 8.44905C16.5941 8.31133 16.5709 8.174 16.5206 8.04568C16.4704 7.91735 16.3941 7.8008 16.2966 7.70335C16.1992 7.60589 16.0826 7.52964 15.9543 7.47936C15.826 7.42909 15.6887 7.40588 15.5509 7.4112C15.4132 7.41652 15.2781 7.45025 15.154 7.51027C15.03 7.5703 14.9196 7.65532 14.83 7.76L12 10.59L9.17 7.76C8.9787 7.59617 8.73262 7.51057 8.48095 7.52029C8.22927 7.53001 7.99053 7.63434 7.81244 7.81244C7.63434 7.99053 7.53001 8.22927 7.52029 8.48095C7.51057 8.73262 7.59617 8.9787 7.76 9.17L10.59 12L7.76 14.83C7.57375 15.0174 7.46921 15.2708 7.46921 15.535C7.46921 15.7992 7.57375 16.0526 7.76 16.24C7.94736 16.4262 8.20081 16.5308 8.465 16.5308C8.72919 16.5308 8.98264 16.4262 9.17 16.24L12 13.41L14.83 16.24C15.0174 16.4262 15.2708 16.5308 15.535 16.5308C15.7992 16.5308 16.0526 16.4262 16.24 16.24C16.4263 16.0526 16.5308 15.7992 16.5308 15.535C16.5308 15.2708 16.4263 15.0174 16.24 14.83L13.41 12Z" fill="black"/>
</svg>
