<svg width="24" height="24" viewBox="0 0 24 24" fill="none" xmlns="http://www.w3.org/2000/svg">
<path opacity="0.3" d="M16.0206 1.97332L7.88069 2.01736C4.58912 2.03517 1.93521 4.71795 1.95302 8.00952L1.99674 16.0894C2.01455 19.381 4.69733 22.0349 7.9889 22.0171L16.1288 21.973C19.4203 21.9552 22.0743 19.2724 22.0564 15.9809L22.0127 7.90099C21.9949 4.60942 19.3121 1.95551 16.0206 1.97332Z" fill="black"/>
<path d="M9.4 19.4C10.7248 19.4 11.8 18.3248 11.8 17V14.6H9.4C8.0752 14.6 7 15.6752 7 17C7 18.3248 8.0752 19.4 9.4 19.4Z" fill="black"/>
<path d="M7 12.2C7 10.8752 8.0752 9.8 9.4 9.8H11.8V14.6H9.4C8.0752 14.6 7 13.5248 7 12.2Z" fill="black"/>
<path d="M7 7.4C7 6.0752 8.0752 5 9.4 5H11.8V9.8H9.4C8.0752 9.8 7 8.7248 7 7.4Z" fill="black"/>
<path d="M11.8 5H14.2C15.5248 5 16.6 6.0752 16.6 7.4C16.6 8.7248 15.5248 9.8 14.2 9.8H11.8V5Z" fill="black"/>
<path d="M16.6 12.2C16.6 13.5248 15.5248 14.6 14.2 14.6C12.8752 14.6 11.8 13.5248 11.8 12.2C11.8 10.8752 12.8752 9.8 14.2 9.8C15.5248 9.8 16.6 10.8752 16.6 12.2Z" fill="black"/>
</svg>
