<svg width="24" height="24" viewBox="0 0 24 24" fill="none" xmlns="http://www.w3.org/2000/svg">
<path opacity="0.3" d="M16.0206 1.97332L7.88069 2.01736C4.58912 2.03517 1.93521 4.71795 1.95302 8.00952L1.99674 16.0894C2.01455 19.381 4.69733 22.0349 7.9889 22.0171L16.1288 21.973C19.4203 21.9552 22.0743 19.2724 22.0564 15.9809L22.0127 7.90099C21.9949 4.60942 19.3121 1.95551 16.0206 1.97332Z" fill="black"/>
<path fill-rule="evenodd" clip-rule="evenodd" d="M12.206 5C8.22125 5 5 8.29999 5 12.3825C5 15.6459 7.06397 18.4083 9.92723 19.386C10.2852 19.4595 10.4163 19.2271 10.4163 19.0317C10.4163 18.8605 10.4045 18.2739 10.4045 17.6626C8.40002 18.1027 7.98259 16.7826 7.98259 16.7826C7.66045 15.927 7.18315 15.7071 7.18315 15.7071C6.52707 15.2549 7.23094 15.2549 7.23094 15.2549C7.9587 15.3038 8.34058 16.0127 8.34058 16.0127C8.98471 17.137 10.0227 16.8194 10.4402 16.6238C10.4998 16.1471 10.6908 15.8171 10.8937 15.6338C9.2949 15.4626 7.61281 14.8271 7.61281 11.9913C7.61281 11.1846 7.89896 10.5246 8.35238 10.0113C8.28084 9.82803 8.03024 9.07008 8.42406 8.05564C8.42406 8.05564 9.0325 7.86004 10.4044 8.81343C10.9918 8.65183 11.5975 8.56963 12.206 8.56894C12.8144 8.56894 13.4346 8.65458 14.0074 8.81343C15.3794 7.86004 15.9879 8.05564 15.9879 8.05564C16.3817 9.07008 16.1309 9.82803 16.0594 10.0113C16.5248 10.5246 16.7991 11.1846 16.7991 11.9913C16.7991 14.8271 15.117 15.4503 13.5063 15.6338C13.7689 15.866 13.9954 16.3059 13.9954 17.0027C13.9954 17.9926 13.9836 18.7872 13.9836 19.0315C13.9836 19.2271 14.1149 19.4595 14.4727 19.3861C17.336 18.4081 19.4 15.6459 19.4 12.3825C19.4118 8.29999 16.1787 5 12.206 5Z" fill="black"/>
</svg>
