<svg width="24" height="24" viewBox="0 0 24 24" fill="none" xmlns="http://www.w3.org/2000/svg">
<path opacity="0.3" d="M16.0206 1.97332L7.88069 2.01736C4.58912 2.03517 1.93521 4.71795 1.95302 8.00952L1.99674 16.0894C2.01455 19.381 4.69733 22.0349 7.9889 22.0171L16.1288 21.973C19.4203 21.9552 22.0743 19.2724 22.0564 15.9809L22.0127 7.90099C21.9949 4.60942 19.3121 1.95551 16.0206 1.97332Z" fill="black"/>
<path d="M8.03999 9.59995H5.15999C4.96117 9.59995 4.79999 9.75345 4.79999 9.94281V18.857C4.79999 19.0464 4.96117 19.1999 5.15999 19.1999H8.03999C8.23881 19.1999 8.39999 19.0464 8.39999 18.857V9.94281C8.39999 9.75345 8.23881 9.59995 8.03999 9.59995Z" fill="black"/>
<path d="M6.58559 8.2284C7.57175 8.2284 8.37119 7.4609 8.37119 6.51413C8.37119 5.56737 7.57175 4.79986 6.58559 4.79986C5.59943 4.79986 4.79999 5.56737 4.79999 6.51413C4.79999 7.4609 5.59943 8.2284 6.58559 8.2284Z" fill="black"/>
<path d="M16.68 19.1995H18.84C18.9355 19.1995 19.027 19.1634 19.0945 19.0991C19.1621 19.0348 19.2 18.9476 19.2 18.8567V13.0967C19.2 10.5116 17.6664 9.25675 15.5208 9.25675C15.0976 9.24201 14.6758 9.31189 14.2827 9.46188C13.8896 9.61188 13.5338 9.83865 13.2384 10.1276C13.1989 10.171 13.1465 10.2019 13.088 10.2161C13.0296 10.2302 12.968 10.227 12.9115 10.2068C12.8551 10.1867 12.8065 10.1505 12.7722 10.1033C12.738 10.056 12.7197 9.99989 12.72 9.94246C12.72 9.85153 12.6821 9.76432 12.6146 9.70002C12.547 9.63573 12.4555 9.59961 12.36 9.59961H10.2C10.1045 9.59961 10.0129 9.63573 9.94543 9.70002C9.87792 9.76432 9.83999 9.85153 9.83999 9.94246V18.8567C9.83999 18.9476 9.87792 19.0348 9.94543 19.0991C10.0129 19.1634 10.1045 19.1995 10.2 19.1995H12.36C12.4555 19.1995 12.547 19.1634 12.6146 19.0991C12.6821 19.0348 12.72 18.9476 12.72 18.8567V13.7139C12.72 13.2592 12.9096 12.8232 13.2472 12.5017C13.5848 12.1802 14.0426 11.9996 14.52 11.9996C14.9974 11.9996 15.4552 12.1802 15.7928 12.5017C16.1303 12.8232 16.32 13.2592 16.32 13.7139V18.8567C16.32 18.9476 16.3579 19.0348 16.4254 19.0991C16.4929 19.1634 16.5845 19.1995 16.68 19.1995Z" fill="black"/>
</svg>
