<svg width="387" height="261" viewBox="0 0 387 261" fill="none" xmlns="http://www.w3.org/2000/svg">
    <path d="M75.142 223.352s30.641 12.627 52.234 1.81l8.123-41.417-60.357 39.607z" fill="#6857A7"/>
    <path d="M112.055 206.221s17.004 2.694 17.51 7.66l15.826-.463 44.153-45.037-3.62-9.891h-41.417l-32.452 47.731z" fill="#000"/>
    <path d="m168.793 135.046-45.037 86.496 14.437 8.081 45.037-89.148-14.437-5.429z" fill="#fff"/>
    <path d="m138.446 230.507-15.532-8.713 45.584-87.506 15.616 5.851-45.668 90.368zm-13.848-9.218 13.301 7.492 44.405-87.969-13.216-4.966-44.49 85.443z" fill="#000"/>
    <path d="m175.913 138.281-2.893.25 1.161 13.419 2.893-.25-1.161-13.419zM153.916 166.876l-.403 2.876 13.338 1.871.404-2.876-13.339-1.871zM167.109 159.711a1.886 1.886 0 0 0 1.894-1.894 1.885 1.885 0 0 0-1.894-1.894 1.886 1.886 0 0 0-1.894 1.894c0 1.052.884 1.894 1.894 1.894zM149.6 179.493c0-.968-.8-1.768-1.768-1.768s-1.768.8-1.768 1.768.8 1.768 1.768 1.768 1.768-.758 1.768-1.768zM135.752 226.845l1.515-1.81-10.733-8.797-1.136 2.147 10.354 8.46zM145.811 214.513l.716-1.432-17.804-1.052-.758 1.431 17.846 1.053z" fill="#000"/>
    <path d="m165.005 176.505-1.473.842-10.102-1.852-.421 2.315 7.324 1.389-20.751 11.995-2.273 4.336 12.796 10.522.673-1.304-12.374-10.144 24.665-14.269 1.936-3.83z" fill="#000"/>
    <path d="M75.142 223.352s.883-41.417 19.824-60.358c18.941-18.941 27.906-22.519 45.037-22.519s54.044 4.504 54.928 11.702c.884 7.197-7.197 16.204-45.921 12.627 0 0-6.313 28.832-36.913 42.343-30.684 13.469-36.955 16.205-36.955 16.205z" fill="#6857A7"/>
    <path d="M187.186 162.362s9.555 6.019 7.745 13.217c-1.81 7.197-6.314 9.891-6.314 9.891s5.388 11.701-6.313 19.825c0 0-.884 8.123-10.817 11.701-9.892 3.62-27.906.884-33.336-2.694-5.388-3.62-3.62-10.817 2.694-12.627 0 0-7.198-13.511 8.123-14.395 0 0-9.007-6.314-1.81-12.627 7.198-6.314 39.65-6.314 39.65-6.314l.378-5.977z" fill="#6857A7"/>
    <path d="M163.111 182.819h-1.263c0-2.4-.716-4.209-2.189-5.346-3.156-2.525-8.712-1.263-8.754-1.263l-.295-1.22c.252-.042 6.229-1.389 9.849 1.473 1.768 1.431 2.652 3.535 2.652 6.356zM159.154 200.875c-.21-2.694-1.22-4.714-2.988-6.019-3.746-2.778-9.681-1.557-9.765-1.515l-.253-1.221c.253-.042 6.566-1.346 10.775 1.768 2.063 1.515 3.241 3.873 3.494 6.903l-1.263.084zM150.526 215.228h-1.263c0-1.936-.589-3.451-1.81-4.546-2.652-2.441-7.366-2.02-7.408-2.02l-.126-1.263c.21 0 5.303-.463 8.376 2.357 1.473 1.347 2.231 3.199 2.231 5.472zM172.16 206.305c-19.235 0-31.357-3.957-31.483-3.999l.378-1.178c.169.042 16.416 5.345 41.207 3.577l.084 1.263c-3.578.253-6.945.337-10.186.337zM167.699 188.879c-10.186 0-18.604-.968-18.773-.968l.127-1.262c.252.042 23.486 2.651 39.438-.884l.295 1.22c-6.524 1.474-14.227 1.894-21.087 1.894zM188.197 152.135c-5.809 0-9.639-1.179-11.491-3.536-1.726-2.189-.926-4.588-.884-4.672l1.178.421-.589-.211.589.211c-.042.084-.589 1.852.716 3.493 1.389 1.768 5.219 3.704 15.321 2.778l.126 1.263a53.15 53.15 0 0 1-4.966.253z" fill="#fff"/>
    <path d="M194.005 144.095c24.385 0 44.153-19.768 44.153-44.153 0-24.385-19.768-44.153-44.153-44.153-24.385 0-44.153 19.768-44.153 44.153 0 24.385 19.768 44.153 44.153 44.153z" fill="#000"/>
    <path d="m169.046 112.696 8.544-4.925 13.848 11.407.926-1.137-13.427-11.07 25.507-14.731 20.035 3.704.421-2.357-17.257-3.157 7.323-4.251-1.178-2.063-9.765 5.64-10.102-1.852-.421 2.315 7.366 1.347-23.907 13.806-16.374-13.469-.926 1.094 15.953 13.175-7.745 4.461 1.179 2.063zM167.912 124.365l-.084 1.429 41.094 2.424.084-1.428-41.094-2.425zM228.24 96.543l-2.907 13.151 2.836.627 2.906-13.151-2.835-.627zM170.477 62.608l-1.389 6.23 2.82.63 1.936-8.754a29.667 29.667 0 0 0-3.367 1.894z" fill="#fff"/>
    <path d="m182.097 85.047-2.907 13.151 2.836.627 2.906-13.151-2.835-.627zM163.329 107.136l-2.894.25 1.162 13.419 2.893-.25-1.161-13.419zM194.829 121.042l-.403 2.876 13.338 1.871.403-2.876-13.338-1.871zM194.427 79.293l-.404 2.876 13.339 1.871.403-2.876-13.338-1.87zM168.727 75.623l-.428 1.321 22.42 7.274.429-1.321-22.421-7.274zM186.934 104.922l-.429 1.321 22.421 7.274.428-1.321-22.42-7.274zM207.643 72.12a1.886 1.886 0 0 0 1.894-1.894 1.886 1.886 0 0 0-1.894-1.894 1.886 1.886 0 0 0-1.894 1.894c0 1.053.841 1.895 1.894 1.895zM197.92 135.509a1.886 1.886 0 0 0-1.894 1.894c0 1.052.841 1.894 1.894 1.894a1.886 1.886 0 0 0 1.894-1.894 1.886 1.886 0 0 0-1.894-1.894zM154.061 101.331a2.066 2.066 0 0 0-2.062-2.062 2.066 2.066 0 0 0-2.062 2.062c0 1.137.926 2.063 2.062 2.063a2.066 2.066 0 0 0 2.062-2.063zM212.862 104.699a2.066 2.066 0 0 0-2.063-2.063 2.066 2.066 0 0 0-2.062 2.063c0 1.136.926 2.062 2.062 2.062a2.066 2.066 0 0 0 2.063-2.062zM190.091 91.903c0-.968-.8-1.768-1.768-1.768s-1.768.8-1.768 1.768.8 1.768 1.768 1.768 1.768-.758 1.768-1.768zM150.82 90.935h23.024v-2.357h-22.477c-.21.757-.378 1.557-.547 2.357zM198.425 58.567l-2.82-.631-.379 1.768-4.588-3.788c-.673.042-1.347.126-2.02.21l6.271 5.177-2.146 9.807 2.82.632 1.852-8.376 5.008 4.124.926-1.136-5.556-4.588.632-3.199zM214.672 64.334l2.862-.253-.126-1.557a44.9 44.9 0 0 0-3.073-1.768l.337 3.578zM221.785 83.4h11.87l1.894 1.558a47.51 47.51 0 0 0-2.021-4.756l-13.721-11.28-1.515 1.852 13.721 11.28h-10.228V83.4zM156.334 122.882l19.951 16.373 1.515-1.852-24.202-19.909c.758 1.894 1.684 3.662 2.736 5.388zM228.688 127.259l-2.778-.926 1.641-2.483-3.451-2.273-2.273 3.409-9.344-3.03-.421 1.304 8.965 2.905-4.377 6.608 3.451 2.273 5.009-7.577 2.652.842c.294-.294.631-.673.926-1.052z" fill="#fff"/>
    <path d="M194.005 131.468c17.411 0 31.526-14.114 31.526-31.526 0-17.41-14.115-31.525-31.526-31.525s-31.526 14.114-31.526 31.525c0 17.412 14.115 31.526 31.526 31.526z" fill="#fff"/>
    <path d="m186.865 81.926.675 7.884 2.013-.172-.675-7.885-2.013.173zM188.577 99.969l3.936 2.816.711-.993-3.937-2.816-.71.993zM213.119 97.37l3.508-3.334-.841-.885-3.508 3.335.841.884zM206.051 88.553l4.668-6.39-1.632-1.192-4.668 6.39 1.632 1.192zM170.511 103.965l-1.12-4.709-1.188.282 1.12 4.709 1.188-.282zM190.392 118.841l-4.836.212.054 1.219 4.835-.211-.053-1.22zM201.582 97.459a1.052 1.052 0 1 0 0-2.104 1.052 1.052 0 0 0 0 2.104zM227.215 32.555l3.83 8.166 1.01-1.179-2.988-9.049-1.852 2.062zM247.334 54.695a1.557 1.557 0 1 0 0-3.114 1.557 1.557 0 0 0 0 3.114zM120.01 129.995l-4.462-23.781-40.575 7.576-1.473-7.787 28.537-63.051 12.754-2.4 10.144 54.297 12.206-2.273 1.726 9.26-12.207 2.273 4.462 23.781-11.112 2.105zm-6.187-33.041-5.472-29.169a259.809 259.809 0 0 1-2.147-13.763l-.421.084c-1.725 5.598-3.198 9.765-4.84 14.268l-15.826 33.673.042.252 28.664-5.345zM281.764 136.94l5.64-23.529-40.154-9.639 1.852-7.702 51.771-45.92 12.627 3.03-12.88 53.707 12.08 2.904-2.188 9.176-12.08-2.904-5.641 23.528-11.027-2.651zm7.829-32.662 6.944-28.832a255.503 255.503 0 0 1 3.662-13.47l-.378-.084c-3.873 4.42-6.903 7.619-10.228 11.028l-28.201 24.286-.084.253 28.285 6.819z" fill="#000"/>
</svg>
