<svg width="24" height="24" viewBox="0 0 24 24" fill="none" xmlns="http://www.w3.org/2000/svg">
<path opacity="0.3" d="M12 22C17.5228 22 22 17.5228 22 12C22 6.47715 17.5228 2 12 2C6.47715 2 2 6.47715 2 12C2 17.5228 6.47715 22 12 22Z" fill="black"/>
<path d="M11.71 15.71L17.71 9.71C17.8032 9.61676 17.8772 9.50607 17.9277 9.38425C17.9781 9.26243 18.0041 9.13186 18.0041 9C18.0041 8.86814 17.9781 8.73757 17.9277 8.61575C17.8772 8.49393 17.8032 8.38324 17.71 8.29C17.6168 8.19676 17.5061 8.1228 17.3843 8.07234C17.2624 8.02188 17.1319 7.99591 17 7.99591C16.8681 7.99591 16.7376 8.02188 16.6158 8.07234C16.4939 8.1228 16.3832 8.19676 16.29 8.29L11 13.59L7.71 10.29C7.5217 10.1017 7.2663 9.99591 7 9.99591C6.7337 9.99591 6.47831 10.1017 6.29 10.29C6.1017 10.4783 5.99591 10.7337 5.99591 11C5.99591 11.2663 6.1017 11.5217 6.29 11.71L10.29 15.71C10.383 15.8037 10.4936 15.8781 10.6154 15.9289C10.7373 15.9797 10.868 16.0058 11 16.0058C11.132 16.0058 11.2627 15.9797 11.3846 15.9289C11.5064 15.8781 11.617 15.8037 11.71 15.71Z" fill="black"/>
</svg>
