<svg width="24" height="24" viewBox="0 0 24 24" fill="none" xmlns="http://www.w3.org/2000/svg">
<path d="M14.0388 15.9612L17.7588 9.44121C17.9116 9.17647 17.992 8.87613 17.9919 8.57043C17.9917 8.26474 17.9111 7.96447 17.758 7.69986C17.6049 7.43526 17.3848 7.21565 17.1199 7.06316C16.8549 6.91067 16.5545 6.83067 16.2488 6.83121L7.82877 6.83121C7.52307 6.83067 7.22262 6.91067 6.95767 7.06316C6.69272 7.21565 6.47263 7.43526 6.31954 7.69986C6.16646 7.96447 6.08578 8.26474 6.08565 8.57043C6.08551 8.87613 6.16592 9.17647 6.31877 9.44121L10.0388 15.9612C10.2305 16.3256 10.5181 16.6307 10.8706 16.8435C11.2231 17.0563 11.627 17.1688 12.0388 17.1688C12.4505 17.1688 12.8544 17.0563 13.2069 16.8435C13.5594 16.6307 13.847 16.3256 14.0388 15.9612Z" fill="black"/>
</svg>
