<svg width="24" height="24" viewBox="0 0 24 24" fill="none" xmlns="http://www.w3.org/2000/svg">
<path opacity="0.4" d="M22 11.41C21.8597 8.94711 20.814 6.62299 19.0639 4.8844C17.3138 3.1458 14.9828 2.11545 12.519 1.99139C10.0553 1.86734 7.6326 2.65833 5.71672 4.21233C3.80083 5.76633 2.52696 7.97366 2.13997 10.41C1.77891 12.678 2.19847 15.0015 3.32997 17L2.43997 20.31C2.40601 20.4414 2.39914 20.5782 2.41977 20.7123C2.4404 20.8464 2.4881 20.9749 2.55997 21.09C2.64116 21.2315 2.7585 21.3488 2.89997 21.43C3.01517 21.4972 3.14263 21.5406 3.27487 21.5578C3.4071 21.575 3.54144 21.5655 3.66997 21.53L6.93997 20.63C8.4748 21.5285 10.2215 22.0014 12 22C13.3581 21.9812 14.6986 21.69 15.9421 21.1437C17.1856 20.5974 18.3068 19.8071 19.2393 18.8196C20.1718 17.8321 20.8966 16.6674 21.3708 15.3947C21.845 14.1219 22.059 12.7669 22 11.41Z" fill="black"/>
<path d="M7.76996 7.45C6.82996 8.31 6.65996 9.54 7.63996 11.45C8.70626 13.379 10.2618 14.9931 12.15 16.13C13.78 17.06 14.89 17.3 16.03 16.64C16.3748 16.4868 16.658 16.222 16.834 15.8882C17.0099 15.5544 17.0684 15.1711 17 14.8C16.9167 14.685 16.8229 14.5778 16.72 14.48L14.72 13.1C14.6172 13.044 14.502 13.0146 14.385 13.0146C14.2679 13.0146 14.1527 13.044 14.05 13.1C13.7905 13.3052 13.5434 13.5256 13.31 13.76C13.2667 13.8043 13.2113 13.8346 13.1507 13.8471C13.0901 13.8595 13.0272 13.8536 12.97 13.83C11.8653 13.1044 10.9195 12.162 10.19 11.06C10.162 11.0078 10.1528 10.9476 10.1637 10.8894C10.1746 10.8313 10.205 10.7785 10.25 10.74C10.41 10.57 10.91 9.98 10.91 9.98C10.9664 9.88259 10.9973 9.77253 11 9.66C10.9871 9.55458 10.9637 9.45072 10.93 9.35L9.57996 7.35C9.49265 7.23026 9.37587 7.13512 9.24096 7.0738C9.10605 7.01247 8.95759 6.98705 8.80996 7C8.41825 7.01034 8.04567 7.17155 7.76996 7.45Z" fill="black"/>
</svg>
