<svg width="205" height="30" viewBox="0 0 205 30" fill="none" xmlns="http://www.w3.org/2000/svg">
<path d="M43.7645 0.0484085V28.9824H39.7915V26.4384L39.6674 26.3534C39.6381 26.435 39.5992 26.5129 39.5515 26.5854C38.7781 27.5669 37.7813 28.3493 36.6442 28.8674C35.5072 29.3855 34.2627 29.6243 33.0146 29.5638C31.7665 29.5033 30.551 29.1454 29.4693 28.5198C28.3877 27.8942 27.4713 27.0191 26.7965 25.9674C25.4984 24.0571 24.885 21.7637 25.0562 19.4605C25.2275 17.1572 26.1732 14.9798 27.7395 13.2824C28.4783 12.4911 29.3746 11.8631 30.3706 11.4388C31.3666 11.0144 32.4403 10.8031 33.5228 10.8183C34.6053 10.8336 35.6727 11.0751 36.6563 11.5273C37.64 11.9796 38.5182 12.6326 39.2345 13.4444C39.3965 13.6224 39.5595 13.8004 39.7755 14.0444V0.0484085H43.7645ZM34.4575 25.5654C35.5214 25.5562 36.5587 25.2313 37.4378 24.6318C38.3169 24.0324 38.9983 23.1855 39.3955 22.1984C39.7927 21.2113 39.8878 20.1285 39.6689 19.0873C39.45 18.046 38.927 17.0932 38.166 16.3496C37.4049 15.606 36.4403 15.1051 35.3942 14.9103C34.3482 14.7156 33.2679 14.8359 32.2902 15.2558C31.3126 15.6758 30.4817 16.3765 29.9028 17.2692C29.3239 18.162 29.023 19.2065 29.0384 20.2704C29.0631 21.6885 29.6459 23.0397 30.6604 24.0309C31.6748 25.0222 33.0392 25.5735 34.4575 25.5654Z" fill="#3B2A82"/>
<path d="M12.9684 2.49839C17.0884 11.3574 21.1775 20.1544 25.2825 29.0044H22.9554C22.2054 29.0044 21.4634 28.9964 20.7134 29.0124C20.6262 29.0239 20.5379 29.0037 20.4645 28.9554C20.391 28.9071 20.3375 28.834 20.3135 28.7494C19.7495 27.4974 19.1624 26.2494 18.5974 24.9924C18.5643 24.8927 18.4977 24.8074 18.4089 24.7511C18.3202 24.6948 18.2148 24.6709 18.1105 24.6834C14.6705 24.6914 11.2304 24.6914 7.79041 24.6834C7.67899 24.6703 7.5665 24.6962 7.47205 24.7568C7.37759 24.8173 7.30708 24.9087 7.27246 25.0154C6.71579 26.2601 6.14645 27.4967 5.56445 28.7254C5.51045 28.8414 5.3644 28.9884 5.2644 28.9884C3.7334 29.0034 2.20339 29.0034 0.603394 29.0034C4.72739 20.1614 8.83238 11.3724 12.9684 2.49839ZM16.3925 20.3244L12.9684 12.8654L9.50537 20.3254L16.3925 20.3244Z" fill="#3B2A82"/>
<path d="M69.2205 6.4024C68.2075 7.4534 67.2105 8.49638 66.2135 9.53338C64.5272 7.83661 62.2441 6.86661 59.8522 6.83059C57.4602 6.79458 55.1491 7.6954 53.4125 9.34063C51.6758 10.9859 50.6515 13.245 50.5582 15.6354C50.465 18.0258 51.3103 20.3579 52.9135 22.1334C53.7308 23.0778 54.7389 23.8382 55.8716 24.3644C57.0042 24.8907 58.2357 25.1708 59.4845 25.1864C60.7285 25.2335 61.9688 25.0215 63.1265 24.5637C64.2842 24.106 65.3341 23.4126 66.2095 22.5274L69.2314 25.6504C67.3353 27.5228 64.9279 28.7929 62.3119 29.3009C59.6959 29.8089 56.9881 29.5323 54.5289 28.5057C52.0697 27.4791 49.9689 25.7484 48.4906 23.5312C47.0123 21.3139 46.2224 18.7092 46.2203 16.0443C46.2183 13.3794 47.004 10.7734 48.4789 8.55392C49.9537 6.3344 52.0519 4.60043 54.5095 3.57C56.9671 2.53957 59.6744 2.2587 62.2911 2.76266C64.9079 3.26661 67.3173 4.53293 69.2164 6.4024H69.2205Z" fill="url(#paint0_linear_2_160)"/>
<path d="M117.897 28.9824H113.931V26.4394L113.854 26.4004C113.769 26.5004 113.683 26.5934 113.598 26.6944C112.807 27.6777 111.787 28.4514 110.626 28.9475C109.466 29.4436 108.201 29.6469 106.943 29.5394C105.884 29.4718 104.852 29.1814 103.912 28.6872C102.973 28.193 102.149 27.5061 101.494 26.6714C100.289 25.2613 99.5043 23.5413 99.2296 21.7071C98.9548 19.873 99.2009 17.9985 99.9396 16.2974C100.344 15.1705 100.987 14.1443 101.825 13.2891C102.663 12.4338 103.676 11.7698 104.795 11.3424C106.273 10.773 107.891 10.6716 109.429 11.0518C110.967 11.4321 112.352 12.2757 113.395 13.4684C113.55 13.6384 113.704 13.8084 113.921 14.0554V11.4034H117.91V28.9824H117.897ZM108.482 25.5654C109.542 25.5774 110.583 25.2753 111.472 24.697C112.361 24.1188 113.059 23.2903 113.478 22.3159C113.897 21.3416 114.019 20.265 113.827 19.2218C113.635 18.1786 113.139 17.2155 112.401 16.4538C111.663 15.692 110.716 15.1658 109.679 14.9414C108.643 14.717 107.563 14.8044 106.576 15.1926C105.589 15.5809 104.739 16.2525 104.133 17.123C103.527 17.9936 103.192 19.024 103.171 20.0844C103.158 20.7935 103.285 21.4981 103.545 22.1577C103.806 22.8174 104.194 23.4192 104.687 23.9285C105.181 24.4378 105.77 24.8446 106.421 25.1255C107.072 25.4064 107.772 25.5559 108.482 25.5654Z" fill="url(#paint1_linear_2_160)"/>
<path d="M97.1414 21.8934H83.7225C83.8075 22.0864 83.8545 22.2414 83.9315 22.3804C84.3689 23.1963 84.9922 23.8978 85.751 24.4282C86.5098 24.9585 87.3828 25.3029 88.2994 25.4334C89.3862 25.6623 90.5125 25.6229 91.5806 25.3185C92.6488 25.0141 93.6267 24.4538 94.4295 23.6864L97.1966 26.5704C96.3864 27.3693 95.4449 28.0231 94.4134 28.5034C92.4266 29.4533 90.2004 29.7849 88.023 29.4555C85.8456 29.126 83.8173 28.1506 82.2005 26.6554C80.9937 25.561 80.1182 24.1497 79.6741 22.5823C79.23 21.0148 79.2351 19.3542 79.6885 17.7894C80.09 15.9557 81.0651 14.2976 82.4725 13.0554C83.8799 11.8133 85.6463 11.0518 87.5157 10.8813C89.3851 10.7108 91.2601 11.1402 92.869 12.1072C94.4778 13.0742 95.7369 14.5286 96.4634 16.2594C97.2372 18.0302 97.4729 19.9895 97.1414 21.8934ZM92.9676 18.4614C92.6879 17.4091 92.0655 16.48 91.199 15.8207C90.3326 15.1614 89.2712 14.8094 88.1824 14.8204C86.0724 14.9204 83.8224 16.7454 83.7064 18.4614H92.9676Z" fill="url(#paint2_linear_2_160)"/>
<path d="M160.279 21.8834C161.615 25.6324 167.521 26.9834 170.946 23.6834C171.858 24.6344 172.77 25.5924 173.713 26.5674C173.036 27.2399 172.261 27.8054 171.413 28.2444C169.323 29.3669 166.926 29.7858 164.578 29.439C162.231 29.0923 160.057 27.9984 158.38 26.3194C157.307 25.1586 156.547 23.7428 156.173 22.2062C155.8 20.6696 155.825 19.0631 156.246 17.5388C156.667 16.0146 157.47 14.6231 158.58 13.4962C159.689 12.3693 161.068 11.5443 162.585 11.0994C164.645 10.568 166.827 10.794 168.733 11.7361C170.64 12.6782 172.145 14.2738 172.974 16.2324C173.733 17.9532 173.976 19.8572 173.674 21.7134C173.666 21.7594 173.651 21.8064 173.635 21.8834H160.279ZM160.208 18.4514H169.492C169.236 17.4143 168.639 16.4929 167.798 15.8344C166.957 15.1758 165.919 14.818 164.85 14.818C163.782 14.818 162.744 15.1758 161.903 15.8344C161.062 16.4929 160.465 17.4143 160.208 18.4514Z" fill="url(#paint3_linear_2_160)"/>
<path d="M157.204 11.3784C154.089 17.4784 151.004 23.4914 147.896 29.5784C144.789 23.5024 141.704 17.4734 138.589 11.3784H139.489C140.518 11.3784 141.553 11.3934 142.581 11.3704C142.736 11.3477 142.893 11.3792 143.027 11.4596C143.161 11.54 143.263 11.6643 143.316 11.8114C144.754 14.6484 146.215 17.4704 147.667 20.2914C147.729 20.4154 147.798 20.5314 147.891 20.7014C147.976 20.5394 148.047 20.4234 148.109 20.3014L152.515 11.7214C152.556 11.6098 152.633 11.5151 152.734 11.4521C152.834 11.3891 152.953 11.3614 153.071 11.3734C154.429 11.3884 155.774 11.3784 157.204 11.3784Z" fill="url(#paint4_linear_2_160)"/>
<path d="M127.442 28.9814H123.442V15.4004H119.642V11.3884H123.442V9.45541C123.442 8.85541 123.434 8.24139 123.45 7.63839C123.45 7.57324 123.465 7.50891 123.493 7.4501C123.521 7.39128 123.562 7.33945 123.613 7.29839C124.858 6.65639 126.112 6.03039 127.423 5.36639V11.3724H131.614V15.3724H127.436L127.442 28.9814Z" fill="url(#paint5_linear_2_160)"/>
<path d="M79.6943 14.9134C79.1292 14.7867 78.5444 14.7769 77.9753 14.8846C77.4063 14.9922 76.8653 15.2151 76.3855 15.5394C75.7891 15.9404 75.3058 16.488 74.9822 17.1297C74.6585 17.7713 74.5053 18.4855 74.5374 19.2034V28.9744H70.5725V11.4044H74.5144V13.1974L74.5994 13.2594C75.2306 12.5229 76.0036 11.9209 76.8723 11.4894C77.7473 11.049 78.7148 10.8238 79.6943 10.8324V14.9134Z" fill="url(#paint6_linear_2_160)"/>
<path d="M133.341 11.4034H137.282V28.9734H133.341V11.4034Z" fill="url(#paint7_linear_2_160)"/>
<path d="M137.685 5.18942C137.682 5.65893 137.54 6.11711 137.277 6.50583C137.014 6.89454 136.641 7.19623 136.206 7.37262C135.77 7.549 135.293 7.59212 134.833 7.49649C134.373 7.40086 133.952 7.1708 133.624 6.83551C133.295 6.50022 133.074 6.07482 132.987 5.61334C132.901 5.15186 132.953 4.67511 133.138 4.24359C133.323 3.81207 133.632 3.44525 134.026 3.18973C134.42 2.9342 134.881 2.80148 135.351 2.80841H135.358C135.982 2.81763 136.577 3.07319 137.012 3.51929C137.448 3.96539 137.69 4.56581 137.685 5.18942Z" fill="url(#paint8_linear_2_160)"/>
<path d="M196.643 24.2974C196.058 25.1385 195.417 25.9402 194.726 26.6974C193.822 27.6118 192.724 28.3116 191.513 28.7454C190.302 29.1792 189.009 29.3358 187.73 29.2038C186.45 29.0717 185.217 28.6544 184.12 27.9825C183.023 27.3106 182.091 26.4012 181.393 25.3214C180.18 23.5249 179.602 21.3751 179.751 19.2129C179.899 17.0508 180.766 15.0002 182.212 13.3864C183.149 12.3402 184.325 11.5371 185.641 11.046C186.956 10.5548 188.371 10.3903 189.764 10.5667C191.157 10.743 192.486 11.2549 193.638 12.0584C194.789 12.8619 195.728 13.9329 196.374 15.1794C196.434 15.3035 196.517 15.4142 196.621 15.5044V11.0824H198.476V28.6494H196.652V24.2974H196.643ZM189.106 27.3814C190.593 27.3806 192.046 26.939 193.282 26.1124C194.518 25.2858 195.48 24.1113 196.049 22.7375C196.617 21.3637 196.765 19.8523 196.474 18.3943C196.184 16.9364 195.467 15.5973 194.415 14.5466C193.363 13.4958 192.024 12.7806 190.566 12.4912C189.107 12.2018 187.596 12.3513 186.223 12.9208C184.85 13.4904 183.676 14.4543 182.851 15.6908C182.025 16.9272 181.585 18.3807 181.585 19.8674C181.586 20.8546 181.781 21.8321 182.159 22.744C182.537 23.6559 183.091 24.4844 183.789 25.1822C184.488 25.8799 185.317 26.4333 186.229 26.8106C187.141 27.188 188.119 27.3819 189.106 27.3814Z" fill="#3B2A82"/>
<path d="M203.879 28.6864H202.309C202.231 28.6864 202.162 28.6784 202.061 28.6704V11.0864H203.87V28.6864H203.879Z" fill="#3B2A82"/>
<path d="M177.79 29.2444C177.362 29.2341 176.954 29.06 176.65 28.7581C176.347 28.4562 176.171 28.0493 176.158 27.6214C176.159 27.4067 176.203 27.1943 176.286 26.9963C176.369 26.7984 176.49 26.6187 176.643 26.4676C176.796 26.3166 176.976 26.197 177.175 26.1158C177.374 26.0346 177.587 25.9934 177.802 25.9944C178.016 25.9955 178.229 26.0388 178.427 26.1219C178.624 26.2051 178.804 26.3264 178.955 26.479C179.106 26.6316 179.226 26.8124 179.307 27.0112C179.388 27.2099 179.43 27.4227 179.428 27.6374C179.416 28.0653 179.239 28.4718 178.933 28.7715C178.627 29.0712 178.218 29.2407 177.79 29.2444Z" fill="#3B2A82"/>
<path d="M202.989 4.0214C203.31 4.02338 203.622 4.12029 203.888 4.29988C204.153 4.47946 204.36 4.73366 204.481 5.03038C204.602 5.32709 204.632 5.65299 204.568 5.96693C204.503 6.28087 204.348 6.56877 204.12 6.79423C203.892 7.01969 203.603 7.17262 203.288 7.23368C202.974 7.29474 202.648 7.26121 202.353 7.13731C202.057 7.01341 201.805 6.80468 201.628 6.53755C201.451 6.27041 201.357 5.95682 201.359 5.63639C201.362 5.20636 201.535 4.79515 201.841 4.49256C202.147 4.18998 202.559 4.0206 202.989 4.0214Z" fill="#3B2A82"/>
<defs>
<linearGradient id="paint0_linear_2_160" x1="56.0001" y1="8.87083" x2="85.3046" y2="56.2685" gradientUnits="userSpaceOnUse">
<stop offset="0.001" stop-color="#FF3067"/>
<stop offset="1" stop-color="#A5009F"/>
</linearGradient>
<linearGradient id="paint1_linear_2_160" x1="95.945" y1="-11.1579" x2="118.846" y2="40.2559" gradientUnits="userSpaceOnUse">
<stop offset="0.001" stop-color="#FF3067"/>
<stop offset="1" stop-color="#A5009F"/>
</linearGradient>
<linearGradient id="paint2_linear_2_160" x1="78.0528" y1="-2.77526" x2="102.749" y2="47.719" gradientUnits="userSpaceOnUse">
<stop offset="0.001" stop-color="#FF3067"/>
<stop offset="1" stop-color="#A5009F"/>
</linearGradient>
<linearGradient id="paint3_linear_2_160" x1="140.472" y1="-34.4756" x2="165.224" y2="15.9883" gradientUnits="userSpaceOnUse">
<stop offset="0.001" stop-color="#FF3067"/>
<stop offset="1" stop-color="#A5009F"/>
</linearGradient>
<linearGradient id="paint4_linear_2_160" x1="129.934" y1="-28.8195" x2="152.079" y2="22.9368" gradientUnits="userSpaceOnUse">
<stop offset="0.001" stop-color="#FF3067"/>
<stop offset="1" stop-color="#A5009F"/>
</linearGradient>
<linearGradient id="paint5_linear_2_160" x1="110.317" y1="-18.2959" x2="149.801" y2="4.37706" gradientUnits="userSpaceOnUse">
<stop offset="0.001" stop-color="#FF3067"/>
<stop offset="1" stop-color="#A5009F"/>
</linearGradient>
<linearGradient id="paint6_linear_2_160" x1="67.4072" y1="2.63187" x2="106.837" y2="24.9113" gradientUnits="userSpaceOnUse">
<stop offset="0.001" stop-color="#FF3067"/>
<stop offset="1" stop-color="#A5009F"/>
</linearGradient>
<linearGradient id="paint7_linear_2_160" x1="116.414" y1="-22.0499" x2="144.82" y2="-18.8542" gradientUnits="userSpaceOnUse">
<stop offset="0.001" stop-color="#FF3067"/>
<stop offset="1" stop-color="#A5009F"/>
</linearGradient>
<linearGradient id="paint8_linear_2_160" x1="122.011" y1="-24.3785" x2="144.99" y2="26.6644" gradientUnits="userSpaceOnUse">
<stop offset="0.001" stop-color="#FF3067"/>
<stop offset="1" stop-color="#A5009F"/>
</linearGradient>
</defs>
</svg>
