<svg width="61" height="58" viewBox="0 0 61 58" fill="none" xmlns="http://www.w3.org/2000/svg">
<path d="M59.4497 43.2461L33.8807 56.7051C32.7762 57.2866 31.5468 57.5904 30.2987 57.5904C29.0505 57.5904 27.8211 57.2866 26.7167 56.7051L1.15167 43.2461C0.798382 43.0603 0.503472 42.7803 0.299683 42.4371C0.0958947 42.0939 -0.00881492 41.7009 -0.00280702 41.3018C0.00320088 40.9027 0.119684 40.513 0.33371 40.1761C0.547737 39.8392 0.850934 39.5681 1.20966 39.3931L30.2987 25.1931L59.3877 39.3931C59.7464 39.5681 60.0496 39.8392 60.2636 40.1761C60.4776 40.513 60.5941 40.9027 60.6001 41.3018C60.6061 41.7009 60.5014 42.0939 60.2976 42.4371C60.0938 42.7803 59.799 43.0603 59.4457 43.2461H59.4497Z" fill="url(#paint0_linear_2_161)"/>
<path d="M59.4497 34.5391L33.8847 47.9981C32.7802 48.5796 31.5508 48.8834 30.3027 48.8834C29.0545 48.8834 27.8251 48.5796 26.7207 47.9981L1.15567 34.5391C0.802642 34.3532 0.507987 34.0732 0.304383 33.7301C0.10078 33.387 -0.0038086 32.9942 0.00219803 32.5953C0.00820466 32.1964 0.124569 31.8069 0.33841 31.4701C0.552251 31.1333 0.855189 30.8623 1.21365 30.6871L30.3027 16.4871L59.3917 30.6871C59.7501 30.8623 60.0531 31.1333 60.2669 31.4701C60.4808 31.8069 60.5971 32.1964 60.6031 32.5953C60.6092 32.9942 60.5046 33.387 60.301 33.7301C60.0974 34.0732 59.8027 34.3532 59.4497 34.5391Z" fill="url(#paint1_linear_2_161)"/>
<path d="M59.4497 25.8791L33.8847 39.3381C32.7803 39.9196 31.5509 40.2234 30.3027 40.2234C29.0545 40.2234 27.8251 39.9196 26.7207 39.3381L1.1557 25.8791C0.802673 25.6932 0.508017 25.4132 0.304414 25.0701C0.10081 24.727 -0.00380867 24.3342 0.00219797 23.9353C0.0082046 23.5364 0.124599 23.1469 0.338441 22.8101C0.552282 22.4733 0.85522 22.2022 1.21368 22.0271L30.3027 7.8271L59.3917 22.0271C59.7502 22.2022 60.0531 22.4733 60.2669 22.8101C60.4808 23.1469 60.5972 23.5364 60.6032 23.9353C60.6092 24.3342 60.5046 24.727 60.301 25.0701C60.0974 25.4132 59.8027 25.6932 59.4497 25.8791Z" fill="url(#paint2_linear_2_161)"/>
<path d="M59.4497 17.2261L33.8807 30.6851C32.7762 31.2665 31.5468 31.5703 30.2987 31.5703C29.0505 31.5703 27.8211 31.2665 26.7167 30.6851L1.15167 17.2261C0.798382 17.0403 0.503472 16.7603 0.299683 16.4171C0.0958947 16.0739 -0.00881492 15.6809 -0.00280702 15.2818C0.00320088 14.8827 0.119684 14.493 0.33371 14.1561C0.547737 13.8192 0.850934 13.5481 1.20966 13.3731L26.9247 0.817093C27.9754 0.30398 29.1293 0.0372772 30.2987 0.0372772C31.468 0.0372772 32.6219 0.30398 33.6727 0.817093L59.3907 13.3781C59.7494 13.5532 60.0526 13.8242 60.2666 14.1611C60.4806 14.498 60.5971 14.8877 60.6031 15.2868C60.6091 15.6859 60.5044 16.0789 60.3007 16.4221C60.0969 16.7653 59.802 17.0453 59.4487 17.2311L59.4497 17.2261Z" fill="url(#paint3_linear_2_161)"/>
<defs>
<linearGradient id="paint0_linear_2_161" x1="30.2987" y1="25.1931" x2="30.2987" y2="57.5904" gradientUnits="userSpaceOnUse">
<stop offset="0.001" stop-color="#8F006D"/>
<stop offset="1" stop-color="#4C00B3"/>
</linearGradient>
<linearGradient id="paint1_linear_2_161" x1="30.3027" y1="16.4871" x2="30.3027" y2="48.8834" gradientUnits="userSpaceOnUse">
<stop offset="0.001" stop-color="#C8006D"/>
<stop offset="1" stop-color="#8200B3"/>
</linearGradient>
<linearGradient id="paint2_linear_2_161" x1="30.3027" y1="7.8271" x2="30.3027" y2="40.2234" gradientUnits="userSpaceOnUse">
<stop offset="0.001" stop-color="#C8006D"/>
<stop offset="1" stop-color="#C5009F"/>
</linearGradient>
<linearGradient id="paint3_linear_2_161" x1="30.3002" y1="-2.4223" x2="30.3002" y2="34.7551" gradientUnits="userSpaceOnUse">
<stop offset="0.001" stop-color="#FF3067"/>
<stop offset="1" stop-color="#FF009F"/>
</linearGradient>
</defs>
</svg>
