<svg width="204" height="94" viewBox="0 0 204 94" fill="none" xmlns="http://www.w3.org/2000/svg">
<path d="M43.1611 64.0968V93.0308H39.1881V90.4868L39.064 90.4018C39.0347 90.4834 38.9958 90.5613 38.9481 90.6338C38.1748 91.6153 37.1779 92.3977 36.0409 92.9158C34.9038 93.4339 33.6593 93.6727 32.4112 93.6122C31.1631 93.5518 29.9476 93.1938 28.8659 92.5682C27.7843 91.9426 26.8679 91.0675 26.1931 90.0158C24.895 88.1055 24.2816 85.8121 24.4528 83.5089C24.6241 81.2056 25.5698 79.0282 27.1361 77.3308C27.8749 76.5395 28.7712 75.9115 29.7672 75.4872C30.7632 75.0628 31.8369 74.8515 32.9194 74.8667C34.0019 74.882 35.0693 75.1235 36.0529 75.5757C37.0366 76.028 37.9148 76.681 38.6311 77.4928C38.7931 77.6708 38.9561 77.8488 39.1721 78.0928V64.0968H43.1611ZM33.8541 89.6138C34.9181 89.6046 35.9553 89.2797 36.8344 88.6803C37.7135 88.0808 38.3949 87.2339 38.7921 86.2468C39.1893 85.2598 39.2844 84.1769 39.0655 83.1357C38.8466 82.0944 38.3236 81.1416 37.5626 80.398C36.8016 79.6544 35.8369 79.1535 34.7909 78.9588C33.7448 78.764 32.6645 78.8843 31.6868 79.3042C30.7092 79.7242 29.8783 80.4249 29.2994 81.3176C28.7205 82.2104 28.4196 83.2549 28.435 84.3188C28.4597 85.7369 29.0425 87.0881 30.057 88.0793C31.0714 89.0706 32.4358 89.6219 33.8541 89.6138Z" fill="#3B2A82"/>
<path d="M12.365 66.5468C16.485 75.4058 20.5741 84.2028 24.6791 93.0528H22.3521C21.6021 93.0528 20.86 93.0448 20.11 93.0608C20.0228 93.0723 19.9345 93.0521 19.8611 93.0038C19.7876 92.9555 19.7341 92.8824 19.7101 92.7978C19.1461 91.5458 18.559 90.2978 17.994 89.0408C17.9609 88.9411 17.8943 88.8559 17.8055 88.7995C17.7168 88.7432 17.6114 88.7193 17.5071 88.7318C14.0671 88.7398 10.627 88.7398 7.18701 88.7318C7.07559 88.7187 6.9631 88.7446 6.86865 88.8052C6.7742 88.8657 6.70369 88.9571 6.66907 89.0638C6.1124 90.3085 5.54306 91.5452 4.96106 92.7738C4.90706 92.8898 4.76101 93.0368 4.66101 93.0368C3.13001 93.0518 1.6 93.0518 0 93.0518C4.124 84.2098 8.22899 75.4208 12.365 66.5468ZM15.7891 84.3728L12.365 76.9138L8.90198 84.3738L15.7891 84.3728Z" fill="#3B2A82"/>
<path d="M68.6171 70.4508C67.6041 71.5018 66.6071 72.5448 65.6101 73.5818C63.9238 71.885 61.6407 70.915 59.2488 70.879C56.8568 70.843 54.5457 71.7438 52.8091 73.389C51.0725 75.0343 50.0481 77.2934 49.9548 79.6838C49.8616 82.0742 50.7069 84.4063 52.3101 86.1818C53.1274 87.1262 54.1355 87.8866 55.2682 88.4128C56.4008 88.9391 57.6323 89.2192 58.8811 89.2348C60.1251 89.282 61.3654 89.0699 62.5231 88.6122C63.6808 88.1544 64.7307 87.461 65.6061 86.5758L68.6281 89.6988C66.7319 91.5712 64.3245 92.8413 61.7085 93.3493C59.0925 93.8573 56.3847 93.5807 53.9255 92.5541C51.4664 91.5275 49.3655 89.7968 47.8872 87.5796C46.4089 85.3623 45.619 82.7576 45.6169 80.0927C45.6149 77.4279 46.4006 74.8218 47.8755 72.6023C49.3504 70.3828 51.4486 68.6488 53.9061 67.6184C56.3637 66.588 59.071 66.3071 61.6877 66.8111C64.3045 67.315 66.7139 68.5813 68.613 70.4508H68.6171Z" fill="url(#paint0_linear_2_163)"/>
<path d="M117.293 93.0308H113.327V90.4878L113.25 90.4488C113.165 90.5488 113.08 90.6418 112.995 90.7428C112.204 91.7261 111.183 92.4998 110.023 92.9959C108.862 93.492 107.598 93.6953 106.34 93.5878C105.281 93.5202 104.248 93.2298 103.309 92.7356C102.37 92.2414 101.546 91.5545 100.89 90.7198C99.6854 89.3098 98.901 87.5897 98.6262 85.7555C98.3515 83.9214 98.5975 82.047 99.3362 80.3458C99.7407 79.2189 100.384 78.1927 101.222 77.3375C102.06 76.4822 103.073 75.8182 104.191 75.3908C105.67 74.8214 107.288 74.72 108.826 75.1003C110.364 75.4805 111.748 76.3241 112.791 77.5168C112.946 77.6868 113.1 77.8568 113.317 78.1038V75.4518H117.306V93.0308H117.293ZM107.878 89.6138C108.939 89.6258 109.979 89.3237 110.868 88.7454C111.758 88.1672 112.456 87.3387 112.875 86.3644C113.294 85.39 113.415 84.3134 113.224 83.2702C113.032 82.227 112.536 81.2639 111.798 80.5022C111.059 79.7405 110.113 79.2142 109.076 78.9898C108.039 78.7654 106.959 78.8528 105.972 79.241C104.985 79.6293 104.135 80.3009 103.529 81.1715C102.923 82.042 102.589 83.0724 102.567 84.1328C102.554 84.8419 102.682 85.5465 102.942 86.2061C103.202 86.8658 103.59 87.4676 104.084 87.9769C104.577 88.4862 105.166 88.893 105.818 89.1739C106.469 89.4548 107.169 89.6043 107.878 89.6138Z" fill="url(#paint1_linear_2_163)"/>
<path d="M96.538 85.9418H83.1191C83.2041 86.1348 83.2511 86.2898 83.3281 86.4288C83.7656 87.2447 84.3888 87.9462 85.1476 88.4766C85.9065 89.007 86.7794 89.3513 87.696 89.4818C88.7828 89.7107 89.9091 89.6713 90.9772 89.3669C92.0454 89.0625 93.0233 88.5023 93.8261 87.7348L96.5932 90.6188C95.783 91.4177 94.8415 92.0715 93.81 92.5518C91.8232 93.5017 89.597 93.8333 87.4196 93.5039C85.2422 93.1744 83.2139 92.199 81.5971 90.7038C80.3903 89.6094 79.5148 88.1981 79.0707 86.6307C78.6266 85.0632 78.6317 83.4026 79.0851 81.8378C79.4866 80.0041 80.4617 78.346 81.8691 77.1038C83.2765 75.8617 85.0429 75.1002 86.9123 74.9297C88.7817 74.7592 90.6567 75.1886 92.2656 76.1556C93.8744 77.1226 95.1335 78.577 95.86 80.3078C96.6338 82.0786 96.8695 84.0379 96.538 85.9418ZM92.3642 82.5098C92.0845 81.4576 91.4621 80.5284 90.5956 79.8691C89.7292 79.2098 88.6678 78.8578 87.579 78.8688C85.469 78.9688 83.219 80.7938 83.103 82.5098H92.3642Z" fill="url(#paint2_linear_2_163)"/>
<path d="M159.676 85.9318C161.012 89.6808 166.918 91.0318 170.343 87.7318C171.255 88.6828 172.167 89.6408 173.11 90.6158C172.433 91.2883 171.657 91.8538 170.81 92.2928C168.719 93.4153 166.322 93.8342 163.975 93.4874C161.627 93.1407 159.454 92.0468 157.777 90.3678C156.703 89.207 155.944 87.7912 155.57 86.2546C155.196 84.718 155.221 83.1115 155.642 81.5872C156.064 80.063 156.867 78.6715 157.976 77.5446C159.086 76.4177 160.465 75.5927 161.982 75.1478C164.042 74.6164 166.223 74.8424 168.13 75.7845C170.037 76.7266 171.542 78.3222 172.371 80.2808C173.13 82.0016 173.373 83.9056 173.071 85.7618C173.063 85.8078 173.048 85.8548 173.032 85.9318H159.676ZM159.605 82.4998H168.889C168.632 81.4627 168.036 80.5413 167.195 79.8828C166.353 79.2243 165.315 78.8664 164.247 78.8664C163.179 78.8664 162.141 79.2243 161.299 79.8828C160.458 80.5413 159.862 81.4627 159.605 82.4998Z" fill="url(#paint3_linear_2_163)"/>
<path d="M156.601 75.4268C153.486 81.5268 150.401 87.5398 147.293 93.6268C144.186 87.5508 141.101 81.5218 137.986 75.4268H138.886C139.915 75.4268 140.95 75.4418 141.978 75.4188C142.132 75.3961 142.29 75.4276 142.424 75.508C142.558 75.5884 142.66 75.7127 142.712 75.8598C144.15 78.6968 145.612 81.5188 147.064 84.3398C147.126 84.4638 147.195 84.5798 147.288 84.7498C147.373 84.5878 147.443 84.4718 147.505 84.3498L151.911 75.7698C151.952 75.6582 152.029 75.5635 152.13 75.5005C152.231 75.4375 152.35 75.4098 152.468 75.4218C153.826 75.4368 155.171 75.4268 156.601 75.4268Z" fill="url(#paint4_linear_2_163)"/>
<path d="M126.839 93.0298H122.839V79.4488H119.039V75.4368H122.839V73.5038C122.839 72.9038 122.831 72.2898 122.847 71.6868C122.847 71.6216 122.862 71.5573 122.89 71.4985C122.918 71.4397 122.959 71.3879 123.009 71.3468C124.254 70.7048 125.509 70.0788 126.82 69.4148V75.4208H131.01V79.4208H126.832L126.839 93.0298Z" fill="url(#paint5_linear_2_163)"/>
<path d="M79.0909 78.9618C78.5258 78.8351 77.941 78.8253 77.3719 78.933C76.8029 79.0406 76.2619 79.2635 75.7821 79.5878C75.1857 79.9888 74.7024 80.5364 74.3788 81.1781C74.0552 81.8197 73.9019 82.5339 73.934 83.2518V93.0228H69.9691V75.4528H73.911V77.2458L73.996 77.3078C74.6272 76.5713 75.4002 75.9693 76.2689 75.5378C77.1439 75.0974 78.1114 74.8722 79.0909 74.8808V78.9618Z" fill="url(#paint6_linear_2_163)"/>
<path d="M132.737 75.4518H136.679V93.0218H132.737V75.4518Z" fill="url(#paint7_linear_2_163)"/>
<path d="M137.081 69.2378C137.079 69.7073 136.937 70.1655 136.673 70.5542C136.41 70.943 136.037 71.2446 135.602 71.421C135.167 71.5974 134.689 71.6405 134.23 71.5449C133.77 71.4493 133.349 71.2192 133.02 70.8839C132.692 70.5486 132.47 70.1232 132.384 69.6618C132.297 69.2003 132.35 68.7235 132.535 68.292C132.72 67.8605 133.029 67.4937 133.423 67.2381C133.817 66.9826 134.278 66.8499 134.747 66.8568H134.755C135.379 66.866 135.973 67.1216 136.409 67.5677C136.845 68.0138 137.087 68.6142 137.081 69.2378Z" fill="url(#paint8_linear_2_163)"/>
<path d="M196.04 88.3458C195.454 89.1869 194.814 89.9886 194.123 90.7458C193.219 91.6602 192.12 92.36 190.909 92.7938C189.699 93.2276 188.406 93.3842 187.126 93.2522C185.847 93.1201 184.613 92.7028 183.517 92.0309C182.42 91.359 181.488 90.4496 180.789 89.3698C179.577 87.5733 178.999 85.4235 179.148 83.2614C179.296 81.0992 180.162 79.0486 181.609 77.4348C182.545 76.3886 183.722 75.5855 185.037 75.0944C186.353 74.6032 187.768 74.4387 189.16 74.6151C190.553 74.7914 191.883 75.3034 193.034 76.1068C194.186 76.9103 195.125 77.9813 195.771 79.2278C195.83 79.352 195.914 79.4626 196.018 79.5528V75.1308H197.873V92.6978H196.049V88.3458H196.04ZM188.503 91.4298C189.99 91.429 191.443 90.9874 192.679 90.1608C193.914 89.3342 194.877 88.1597 195.445 86.786C196.013 85.4122 196.162 83.9007 195.871 82.4428C195.58 80.9848 194.864 79.6458 193.812 78.595C192.76 77.5443 191.42 76.829 189.962 76.5396C188.504 76.2502 186.993 76.3997 185.619 76.9692C184.246 77.5388 183.073 78.5027 182.247 79.7392C181.422 80.9756 180.981 82.4291 180.982 83.9158C180.982 84.903 181.177 85.8805 181.555 86.7924C181.934 87.7043 182.488 88.5328 183.186 89.2306C183.884 89.9283 184.714 90.4817 185.626 90.859C186.538 91.2364 187.516 91.4303 188.503 91.4298Z" fill="#3B2A82"/>
<path d="M203.275 92.7348H201.706C201.628 92.7348 201.559 92.7268 201.458 92.7188V75.1348H203.267V92.7348H203.275Z" fill="#3B2A82"/>
<path d="M177.186 93.2928C176.758 93.2825 176.35 93.1085 176.047 92.8065C175.744 92.5046 175.567 92.0977 175.555 91.6699C175.556 91.4551 175.599 91.2427 175.682 91.0447C175.766 90.8468 175.887 90.6671 176.04 90.516C176.192 90.365 176.373 90.2454 176.572 90.1642C176.77 90.083 176.983 90.0418 177.198 90.0428C177.413 90.0439 177.625 90.0872 177.823 90.1703C178.021 90.2535 178.201 90.3748 178.352 90.5274C178.503 90.68 178.623 90.8608 178.704 91.0596C178.785 91.2583 178.826 91.4711 178.825 91.6858C178.813 92.1137 178.635 92.5203 178.33 92.8199C178.024 93.1196 177.614 93.2891 177.186 93.2928Z" fill="#3B2A82"/>
<path d="M202.386 68.0698C202.706 68.0718 203.019 68.1687 203.284 68.3483C203.55 68.5279 203.756 68.7821 203.877 69.0788C203.998 69.3755 204.028 69.7014 203.964 70.0153C203.9 70.3293 203.744 70.6172 203.517 70.8426C203.289 71.0681 203 71.221 202.685 71.2821C202.371 71.3432 202.045 71.3096 201.749 71.1857C201.454 71.0618 201.202 70.8531 201.025 70.586C200.848 70.3188 200.754 70.0052 200.755 69.6848C200.759 69.2548 200.932 68.8436 201.238 68.541C201.543 68.2384 201.956 68.069 202.386 68.0698Z" fill="#3B2A82"/>
<path d="M131.278 43.2088L105.709 56.6678C104.605 57.2493 103.375 57.5531 102.127 57.5531C100.879 57.5531 99.6495 57.2493 98.545 56.6678L72.98 43.2088C72.6268 43.0231 72.3318 42.743 72.1281 42.3998C71.9243 42.0566 71.8196 41.6636 71.8256 41.2645C71.8316 40.8654 71.9481 40.4757 72.1621 40.1388C72.3761 39.8019 72.6793 39.5309 73.038 39.3558L102.127 25.1558L131.216 39.3558C131.575 39.5309 131.878 39.8019 132.092 40.1388C132.306 40.4757 132.422 40.8654 132.428 41.2645C132.435 41.6636 132.33 42.0566 132.126 42.3998C131.922 42.743 131.627 43.0231 131.274 43.2088H131.278Z" fill="url(#paint9_linear_2_163)"/>
<path d="M131.278 34.5018L105.713 47.9608C104.609 48.5423 103.379 48.8461 102.131 48.8461C100.883 48.8461 99.6535 48.5423 98.549 47.9608L72.984 34.5018C72.631 34.3159 72.3364 34.0359 72.1328 33.6928C71.9291 33.3497 71.8246 32.9569 71.8306 32.558C71.8366 32.1591 71.9529 31.7696 72.1668 31.4328C72.3806 31.096 72.6836 30.825 73.042 30.6498L102.131 16.4498L131.22 30.6498C131.578 30.825 131.881 31.096 132.095 31.4328C132.309 31.7696 132.426 32.1591 132.432 32.558C132.438 32.9569 132.333 33.3497 132.129 33.6928C131.926 34.0359 131.631 34.3159 131.278 34.5018Z" fill="url(#paint10_linear_2_163)"/>
<path d="M131.278 25.8418L105.713 39.3008C104.609 39.8823 103.379 40.1861 102.131 40.1861C100.883 40.1861 99.6535 39.8823 98.5491 39.3008L72.9841 25.8418C72.631 25.656 72.3364 25.3759 72.1328 25.0328C71.9292 24.6897 71.8246 24.2969 71.8306 23.898C71.8366 23.4991 71.953 23.1096 72.1668 22.7728C72.3807 22.436 72.6836 22.165 73.0421 21.9898L102.131 7.78983L131.22 21.9898C131.579 22.165 131.881 22.436 132.095 22.7728C132.309 23.1096 132.426 23.4991 132.432 23.898C132.438 24.2969 132.333 24.6897 132.129 25.0328C131.926 25.3759 131.631 25.656 131.278 25.8418Z" fill="url(#paint11_linear_2_163)"/>
<path d="M131.278 17.1888L105.709 30.6478C104.605 31.2292 103.375 31.533 102.127 31.533C100.879 31.533 99.6495 31.2292 98.545 30.6478L72.98 17.1888C72.6268 17.003 72.3318 16.723 72.1281 16.3798C71.9243 16.0366 71.8196 15.6436 71.8256 15.2445C71.8316 14.8454 71.9481 14.4557 72.1621 14.1188C72.3761 13.7819 72.6793 13.5109 73.038 13.3358L98.753 0.779816C99.8038 0.266703 100.958 0 102.127 0C103.296 0 104.45 0.266703 105.501 0.779816L131.219 13.3408C131.578 13.5159 131.881 13.7869 132.095 14.1238C132.309 14.4607 132.425 14.8504 132.431 15.2495C132.437 15.6486 132.333 16.0416 132.129 16.3848C131.925 16.728 131.63 17.008 131.277 17.1938L131.278 17.1888Z" fill="url(#paint12_linear_2_163)"/>
<defs>
<linearGradient id="paint0_linear_2_163" x1="55.3967" y1="72.9192" x2="84.7012" y2="120.317" gradientUnits="userSpaceOnUse">
<stop offset="0.001" stop-color="#FF3067"/>
<stop offset="1" stop-color="#A5009F"/>
</linearGradient>
<linearGradient id="paint1_linear_2_163" x1="95.3416" y1="52.8905" x2="118.242" y2="104.304" gradientUnits="userSpaceOnUse">
<stop offset="0.001" stop-color="#FF3067"/>
<stop offset="1" stop-color="#A5009F"/>
</linearGradient>
<linearGradient id="paint2_linear_2_163" x1="77.4495" y1="61.2731" x2="102.146" y2="111.767" gradientUnits="userSpaceOnUse">
<stop offset="0.001" stop-color="#FF3067"/>
<stop offset="1" stop-color="#A5009F"/>
</linearGradient>
<linearGradient id="paint3_linear_2_163" x1="139.868" y1="29.5728" x2="164.62" y2="80.0367" gradientUnits="userSpaceOnUse">
<stop offset="0.001" stop-color="#FF3067"/>
<stop offset="1" stop-color="#A5009F"/>
</linearGradient>
<linearGradient id="paint4_linear_2_163" x1="129.33" y1="35.229" x2="151.476" y2="86.9852" gradientUnits="userSpaceOnUse">
<stop offset="0.001" stop-color="#FF3067"/>
<stop offset="1" stop-color="#A5009F"/>
</linearGradient>
<linearGradient id="paint5_linear_2_163" x1="109.713" y1="45.7525" x2="149.198" y2="68.4255" gradientUnits="userSpaceOnUse">
<stop offset="0.001" stop-color="#FF3067"/>
<stop offset="1" stop-color="#A5009F"/>
</linearGradient>
<linearGradient id="paint6_linear_2_163" x1="66.8038" y1="66.6803" x2="106.233" y2="88.9597" gradientUnits="userSpaceOnUse">
<stop offset="0.001" stop-color="#FF3067"/>
<stop offset="1" stop-color="#A5009F"/>
</linearGradient>
<linearGradient id="paint7_linear_2_163" x1="115.811" y1="41.9985" x2="144.216" y2="45.1942" gradientUnits="userSpaceOnUse">
<stop offset="0.001" stop-color="#FF3067"/>
<stop offset="1" stop-color="#A5009F"/>
</linearGradient>
<linearGradient id="paint8_linear_2_163" x1="121.408" y1="39.6699" x2="144.386" y2="90.7128" gradientUnits="userSpaceOnUse">
<stop offset="0.001" stop-color="#FF3067"/>
<stop offset="1" stop-color="#A5009F"/>
</linearGradient>
<linearGradient id="paint9_linear_2_163" x1="102.127" y1="25.1558" x2="102.127" y2="57.5531" gradientUnits="userSpaceOnUse">
<stop offset="0.001" stop-color="#8F006D"/>
<stop offset="1" stop-color="#4C00B3"/>
</linearGradient>
<linearGradient id="paint10_linear_2_163" x1="102.131" y1="16.4498" x2="102.131" y2="48.8461" gradientUnits="userSpaceOnUse">
<stop offset="0.001" stop-color="#C8006D"/>
<stop offset="1" stop-color="#8200B3"/>
</linearGradient>
<linearGradient id="paint11_linear_2_163" x1="102.131" y1="7.78983" x2="102.131" y2="40.1861" gradientUnits="userSpaceOnUse">
<stop offset="0.001" stop-color="#C8006D"/>
<stop offset="1" stop-color="#C5009F"/>
</linearGradient>
<linearGradient id="paint12_linear_2_163" x1="102.129" y1="-2.45957" x2="102.129" y2="34.7178" gradientUnits="userSpaceOnUse">
<stop offset="0.001" stop-color="#FF3067"/>
<stop offset="1" stop-color="#FF009F"/>
</linearGradient>
</defs>
</svg>
